<svg width="42" height="42" viewBox="0 0 42 42" fill="none" xmlns="http://www.w3.org/2000/svg">
<path fillRule="evenodd" clipRule="evenodd" d="M27.7423 34.2707C27.9221 33.1895 27.8206 32.0819 27.447 31.0484C27.0734 30.0149 26.4395 29.0883 25.6029 28.3526C24.3524 27.2402 22.7167 26.6238 21.0197 26.6255C20.0346 26.6273 19.0634 26.4003 18.1873 25.9636H18.1847C17.0306 25.385 16.0911 24.4722 15.4967 23.352V23.3507C15.8413 22.4723 16.017 21.5402 16.0151 20.6004C16.0153 21.2424 16.1466 21.8781 16.4015 22.4707C16.6564 23.0632 17.0299 23.601 17.5004 24.0528C17.9708 24.5046 18.5289 24.8615 19.1424 25.103C19.7559 25.3445 20.4127 25.4657 21.0748 25.4596C22.3864 25.4343 23.6354 24.9114 24.5539 24.0032C25.4724 23.0949 25.9871 21.8737 25.9875 20.6016C25.9875 19.6318 26.1686 18.7053 26.5059 17.8513V17.8487C26.8997 16.8331 27.51 15.9167 28.2817 15.1569C29.072 14.3708 30.0261 13.7571 31.0803 13.3567C32.1346 12.9564 33.2647 12.7787 34.3954 12.8355C33.0715 10.6891 31.224 8.89104 29.0154 7.59946C29.1066 9.40647 28.5424 11.1874 27.4207 12.6331C27.1054 12.3917 26.7754 12.169 26.4324 11.9662C27.3371 10.8178 27.8265 9.41241 27.825 7.96728C27.8268 7.10868 27.6546 6.2581 27.3184 5.46382C26.8178 4.27872 25.9731 3.26008 24.8869 2.53166C23.8007 1.80324 22.5197 1.3964 21.1995 1.36055C21.1391 1.358 21.0788 1.358 21.0184 1.358C20.9593 1.358 20.8989 1.358 20.8386 1.36055C19.1192 1.37328 17.4523 1.60237 15.8642 2.01982C12.5148 2.9034 9.46191 4.62112 7.00869 7.00245C4.55548 9.38378 2.78724 12.3459 1.8795 15.5947C0.709048 16.9396 0.0461195 18.6311 0 20.3904C0.114187 9.28582 9.36469 0.305459 20.8018 0.194732C20.874 0.192186 20.9462 0.192186 21.0171 0.192186C21.1146 0.191678 21.2122 0.192951 21.3097 0.196005C32.6944 0.365277 41.8845 9.32401 41.9974 20.3916C42 20.4616 42 20.5316 42 20.6016C42 20.6704 42 20.7416 41.9974 20.8104C41.9513 22.5696 41.2883 24.2611 40.1179 25.606C39.4108 26.4226 38.5377 27.0891 37.5531 27.5639C36.5685 28.0386 35.4936 28.3114 34.3954 28.3653C32.5259 28.4595 30.682 27.912 29.1874 26.8189C28.6707 27.4646 28.0738 28.046 27.4103 28.5498L27.4234 28.5664C28.5456 30.0128 29.1099 31.7947 29.0181 33.6026C31.2263 32.3105 33.0734 30.512 34.3967 28.3653C34.8988 28.3412 35.3975 28.2717 35.8864 28.1578C34.031 31.59 30.9834 34.2751 27.2829 35.7382C25.2821 36.5261 23.1425 36.9298 20.9829 36.9269C20.3986 36.9271 19.8221 36.7963 19.2985 36.5449C18.7749 36.2934 18.3182 35.9281 17.9642 35.4773C17.3699 34.7265 17.0962 33.7828 17.1998 32.8417C17.3034 31.9006 17.7763 31.0342 18.5207 30.422C19.3267 30.6124 20.1534 30.7082 20.9829 30.7071C20.6409 30.7073 20.3022 30.7728 19.9862 30.8999C19.6703 31.027 19.3832 31.2133 19.1416 31.448C18.8999 31.6828 18.7082 31.9614 18.5776 32.2679C18.447 32.5745 18.3799 32.903 18.3802 33.2347C18.3802 34.6296 19.5457 35.7611 20.9829 35.7611C20.9952 35.7611 21.0074 35.7611 21.0197 35.7611C21.3618 35.7609 21.7004 35.6954 22.0164 35.5683C22.3323 35.4411 22.6194 35.2549 22.8611 35.0202C23.1028 34.7854 23.2944 34.5068 23.425 34.2003C23.5557 33.8937 23.6227 33.5652 23.6224 33.2335C23.6225 32.9019 23.5554 32.5735 23.4247 32.2671C23.294 31.9606 23.1023 31.6822 22.8606 31.4476C22.6189 31.213 22.332 31.0268 22.0161 30.8998C21.7002 30.7727 21.3616 30.7073 21.0197 30.7071C19.4366 30.7085 17.8742 30.3588 16.4519 29.6847C15.0296 29.0105 13.7852 28.0298 12.8139 26.8176C13.1368 26.5822 13.44 26.3238 13.7196 26.0438C14.4604 26.9786 15.3835 27.7631 16.4364 28.3526C17.8302 29.1316 19.4109 29.5412 21.0197 29.54C21.9581 29.54 22.8191 29.8735 23.4819 30.4207C24.2252 31.032 24.698 31.8968 24.8025 32.8364C24.9071 33.776 24.6354 34.7187 24.0437 35.4696C25.3238 35.2229 26.5665 34.8201 27.7423 34.2707ZM36.3024 17.668C36.0517 16.4258 35.6408 15.2191 35.0792 14.0764C33.9627 13.8988 32.8182 13.9957 31.7503 14.3581C30.6825 14.7206 29.7255 15.337 28.9669 16.1509C27.8206 17.3664 27.186 18.9545 27.1884 20.6016C27.1898 21.5576 26.9558 22.5001 26.5059 23.3507V23.3533C25.9137 24.4681 24.9797 25.3774 23.8324 25.956L23.8521 25.9624H23.8547C24.8942 26.3429 25.8313 26.9296 26.6109 27.6716C27.5649 26.9555 28.3656 26.0658 28.9682 25.0524C29.771 23.6983 30.1928 22.1635 30.1914 20.6016C30.1914 19.6891 30.5327 18.8542 31.0971 18.2102C31.7267 17.4885 32.6186 17.0296 33.5878 16.9287C34.5571 16.8277 35.5292 17.0925 36.3024 17.668ZM36.5951 20.4922C36.568 19.823 36.2678 19.1917 35.7606 18.7371C35.2534 18.2825 34.5808 18.042 33.8907 18.0683C33.2006 18.0946 32.5496 18.3857 32.0808 18.8775C31.612 19.3693 31.3639 20.0215 31.3911 20.6907C31.4045 21.0221 31.4851 21.3476 31.6283 21.6488C31.7715 21.9499 31.9744 22.2207 32.2256 22.4458C32.4767 22.6709 32.7711 22.8458 33.0919 22.9606C33.4128 23.0753 33.7538 23.1277 34.0955 23.1146C34.4372 23.1016 34.7729 23.0234 35.0834 22.8846C35.394 22.7457 35.6733 22.5489 35.9054 22.3054C36.1375 22.0619 36.3179 21.7764 36.4362 21.4653C36.5546 21.1542 36.6086 20.8235 36.5951 20.4922ZM31.0971 22.9931C30.8458 24.0038 30.4335 24.9704 29.8751 25.858C31.0565 26.7362 32.5039 27.2114 33.9924 27.2096C34.8766 27.2114 35.7525 27.0445 36.5702 26.7184C37.7922 26.2308 38.8419 25.4098 39.5921 24.355C40.3423 23.3002 40.7607 22.0569 40.7964 20.776C40.7991 20.7175 40.7991 20.6589 40.7991 20.6016C40.7991 20.5431 40.7991 20.4846 40.7964 20.426C40.7835 18.7945 40.5554 17.1714 40.1179 15.596C39.2129 12.3568 37.4525 9.40244 35.0104 7.02451C32.5683 4.64658 29.5289 2.9273 26.1922 2.03637C27.4932 3.10416 28.4091 4.54647 28.8067 6.15364C32.3246 7.95972 35.0738 10.9099 36.5715 14.4862C37.3616 16.3749 37.7961 18.4405 37.7961 20.6029C37.7961 21.7955 37.2094 22.8582 36.3024 23.5327C35.5296 24.1087 34.5578 24.3741 33.5886 24.2739C32.6194 24.1736 31.7272 23.7155 31.0971 22.9944V22.9931ZM20.6889 41.0047C9.30562 40.8355 0.116813 31.8767 0.0039375 20.8091C0 20.7404 0 20.6691 0 20.6004C0 20.5304 0 20.4604 0.002625 20.3904C0.0487445 18.6311 0.711673 16.9396 1.88213 15.5947C2.58919 14.7781 3.46228 14.1116 4.44688 13.6369C5.43147 13.1621 6.50643 12.8893 7.60463 12.8355C9.4741 12.7413 11.318 13.2888 12.8126 14.3818C13.3293 13.7361 13.9262 13.1547 14.5898 12.6509C13.459 11.2018 12.8899 9.4132 12.9819 7.59819C10.7737 8.89029 8.92664 10.6888 7.60331 12.8355C7.10118 12.8595 6.60246 12.929 6.11363 13.0429C7.96927 9.61123 11.0168 6.92655 14.7171 5.46382C16.7178 4.67545 18.8574 4.27131 21.0171 4.27382C22.2469 4.27382 23.3415 4.84401 24.0358 5.72473C24.6301 6.4755 24.9038 7.41919 24.8002 8.3603C24.6966 9.30141 24.2237 10.1678 23.4793 10.78C22.6733 10.5895 21.8467 10.4933 21.0171 10.4936C21.359 10.4935 21.6976 10.428 22.0135 10.3009C22.3293 10.1739 22.6163 9.98775 22.858 9.75316C23.0997 9.51857 23.2913 9.24011 23.422 8.93369C23.5527 8.62726 23.6199 8.29888 23.6198 7.96728C23.6201 7.63557 23.553 7.30705 23.4224 7.00048C23.2918 6.69391 23.1001 6.4153 22.8584 6.18057C22.6167 5.94584 22.3297 5.75959 22.0138 5.63246C21.6978 5.50533 21.3591 5.43981 21.0171 5.43964C21.0048 5.44005 20.9926 5.44048 20.9803 5.44091C20.6383 5.44108 20.2998 5.50656 19.9839 5.63361C19.668 5.76066 19.3811 5.9468 19.1394 6.1814C18.8977 6.41599 18.706 6.69445 18.5753 7.00087C18.4446 7.30729 18.3775 7.63568 18.3776 7.96728C18.3776 9.36346 19.5431 10.4949 20.9803 10.4949C22.5633 10.4933 24.1257 10.8429 25.5479 11.5168C26.9702 12.1907 28.2146 13.1711 29.1861 14.3831C28.864 14.618 28.5613 14.8767 28.2804 15.1569C27.5396 14.2221 26.6165 13.4377 25.5636 12.8482C24.1698 12.0691 22.5891 11.6596 20.9803 11.6607C20.0775 11.6614 19.2042 11.349 18.5181 10.78C17.7751 10.1688 17.3026 9.30425 17.1981 8.36493C17.0935 7.42561 17.365 6.48322 17.9563 5.73237C16.6763 5.97829 15.4336 6.38027 14.2577 6.92873C14.0779 8.00992 14.1794 9.11754 14.553 10.151C14.9266 11.1845 15.5605 12.1112 16.3971 12.8469C17.6474 13.9598 19.2832 14.5766 20.9803 14.5753C22.0014 14.5753 22.9648 14.8146 23.8127 15.2384H23.8153C24.9692 15.8167 25.9086 16.729 26.5033 17.8487V17.8513C26.1589 18.7293 25.9832 19.661 25.9849 20.6004C25.9846 19.9584 25.8531 19.3229 25.5981 18.7305C25.3431 18.138 24.9696 17.6005 24.4992 17.1488C24.0287 16.6971 23.4707 16.3403 22.8573 16.0989C22.2438 15.8575 21.5872 15.7363 20.9252 15.7424C19.6136 15.7677 18.3646 16.2906 17.4461 17.1988C16.5276 18.1071 16.0129 19.3283 16.0125 20.6004C16.015 21.5398 15.8392 22.4717 15.4941 23.3495V23.352C15.1022 24.3595 14.4973 25.2765 13.7182 26.0438C12.928 26.83 11.9739 27.4437 10.9197 27.844C9.86543 28.2443 8.73529 28.422 7.60463 28.3653C8.92832 30.5121 10.7758 32.3106 12.9846 33.6026C12.8934 31.7955 13.4576 30.0146 14.5792 28.5689C14.8929 28.8095 15.2224 29.0309 15.5676 29.2346C14.6631 30.3834 14.1741 31.7893 14.1763 33.2347C14.1745 34.0933 14.3467 34.9439 14.6829 35.7382C15.1954 36.9507 16.0678 37.9883 17.1895 38.7191C18.3112 39.4499 19.6316 39.841 20.9829 39.8427C21.042 39.8427 21.1024 39.8427 21.1628 39.8402C22.8821 39.8275 24.549 39.5984 26.1371 39.1822C29.4865 38.2983 32.5392 36.5803 34.9921 34.1988C37.4451 31.8172 39.2131 28.8549 40.1205 25.606C41.2912 24.2608 41.9542 22.5688 42 20.8091C41.8858 31.9136 32.6353 40.8953 21.1982 41.006L20.9829 41.0073L20.7664 41.006L20.6903 41.0035L20.6889 41.0047ZM15.8091 39.1656C14.5076 38.098 13.5913 36.6557 13.1932 35.0484C9.67561 33.2426 6.92645 30.2929 5.4285 26.7171C4.61677 24.774 4.20092 22.6968 4.20394 20.6004C4.20394 19.4066 4.79063 18.3438 5.69756 17.6693C6.47037 17.0933 7.44217 16.8279 8.41138 16.9281C9.38058 17.0284 10.2728 17.4866 10.9029 18.2076C11.1542 17.1969 11.5665 16.2303 12.1249 15.3427C10.9434 14.465 9.49595 13.9903 8.00756 13.9924C7.1234 13.9906 6.24752 14.1575 5.42981 14.4836C4.20804 14.9711 3.1584 15.7919 2.40822 16.8465C1.65804 17.9011 1.23957 19.1441 1.20356 20.4247C1.20094 20.4833 1.20094 20.5418 1.20094 20.6004C1.19916 22.2903 1.42822 23.9731 1.88213 25.6047C2.78688 28.8442 4.54721 31.7988 6.98933 34.177C9.43146 36.5551 12.4709 38.2746 15.8077 39.1656H15.8091ZM6.92081 27.1256C7.27519 27.1791 7.63613 27.2084 8.00494 27.2084C8.95189 27.2101 9.88865 27.0189 10.7546 26.6473C11.6205 26.2757 12.3963 25.7319 13.0318 25.0511C14.1786 23.8358 14.8136 22.2476 14.8116 20.6004C14.8116 19.6076 15.0583 18.6735 15.4941 17.85V17.8475C16.0861 16.7333 17.0197 15.8245 18.1663 15.246C18.1602 15.2435 18.1541 15.2409 18.1479 15.2384H18.1453C17.1143 14.8601 16.1756 14.278 15.3891 13.5291C14.435 14.2456 13.6343 15.1358 13.0318 16.1496C12.229 17.5037 11.8072 19.0385 11.8086 20.6004C11.8098 21.4762 11.4887 22.3238 10.9029 22.9905C10.2733 23.7122 9.3814 24.1711 8.41218 24.2721C7.44295 24.373 6.47085 24.1083 5.69756 23.5327C5.95219 24.7927 6.36694 25.998 6.92081 27.1244V27.1256ZM5.40487 20.7098C5.44625 21.369 5.75231 21.9863 6.25745 22.4293C6.76259 22.8722 7.42659 23.1057 8.10712 23.0795C8.78765 23.0534 9.43053 22.7698 9.89796 22.2894C10.3654 21.8091 10.6201 21.1703 10.6076 20.51C10.6013 20.174 10.5258 19.8425 10.3856 19.5351C10.2454 19.2277 10.0433 18.9506 9.79124 18.7199C9.53915 18.4892 9.24211 18.3097 8.91752 18.1918C8.59294 18.0739 8.24735 18.02 7.90101 18.0333C7.55467 18.0466 7.21456 18.1268 6.90061 18.2692C6.58666 18.4117 6.30519 18.6134 6.0727 18.8627C5.84022 19.112 5.6614 19.4038 5.54672 19.721C5.43204 20.0382 5.38382 20.3743 5.40487 20.7098Z" fill="white"/>
</svg>
